<?xml version="1.0" encoding="UTF-8"?>
<svg xmlns="http://www.w3.org/2000/svg" viewBox="0 0 247.72 442.06">
  <defs>
    <style>
      .cls-1 {
        fill: #fff;
        stroke: #fff;
        stroke-miterlimit: 10;
        stroke-width: 12px;
      }
    </style>
  </defs>
  <g id="_图层_1" data-name="图层 1" focusable="false">
    <path class="cls-1" d="M187.09,221.03S59.79,348.32,13.03,395.09c-9.37,9.37-9.37,24.57,0,33.94h0c9.37,9.37,24.57,9.37,33.94,0,40.01-40.01,140.26-140.26,185.37-185.37,12.5-12.5,12.5-32.76,0-45.25C187.23,153.29,86.98,53.04,46.97,13.03c-4.5-4.5-10.6-7.03-16.97-7.03s-12.47,2.53-16.97,7.03h0c-4.5,4.5-7.03,10.61-7.03,16.97s2.53,12.47,7.03,16.97c46.77,46.77,174.06,174.06,174.06,174.06h0Z"/>
  </g>
</svg>