<svg xmlns="http://www.w3.org/2000/svg" version="1.1" xmlns:xlink="http://www.w3.org/1999/xlink" xmlns:svgjs="http://svgjs.dev/svgjs" viewBox="0 0 800 800" opacity="1"><defs><linearGradient x1="50%" y1="0%" x2="50%" y2="100%" id="ccchaos-grad"><stop stop-color="hsl(206, 75%, 49%)" stop-opacity="1" offset="0%"></stop><stop stop-color="hsl(331, 90%, 56%)" stop-opacity="1" offset="100%"></stop></linearGradient></defs><g stroke-width="17.5" stroke="url(#ccchaos-grad)" fill="none" stroke-linecap="round"><path d="M368.57 55.45C377.08 55.66 394.17 54.89 402.77 54 408.54 53.17 414.36 52.31 420.24 51.47 426.19 50.54 432.23 49.72 438.4 49.05 444.66 48.42 451.09 48.03 457.71 47.9 464.46 47.94 471.45 48.32 478.7 49.05 493.72 51.25 509.95 55.04 527.46 60.36 545.62 66.68 564.8 74.28 584.61 82.9 604.02 91.92 622.87 101.46 640.18 111.25 654.99 120.72 666.52 130.05 673.79 139.1 676.99 147.42 675.46 155.36 669.52 162.95 661.37 169.81 651.52 176.47 642.09 183.05 636.35 189.17 635.44 195.45 641.24 202 654.76 208.4 675.27 215.28 701.15 222.67 729.26 230.13 756.03 238.19 777.31 246.85 789.93 255.65 791.59 265.03 781.9 274.92 773.69 279.92 763.59 285.04 752.14 290.26 740.26 295.51 728.39 300.86 717.24 306.3 707.74 311.76 700.27 317.3 695.38 322.92 693.6 328.54 694.98 334.23 699.55 339.97 707.25 345.72 717.61 351.51 730.1 357.35 744.09 363.19 758.73 369.07 773.13 374.99 786.5 380.9 797.81 386.78 806.42 392.62 812.03 398.46 814.14 404.27 812.68 410.04 807.88 415.82 799.9 421.57 789.22 427.3 776.51 433.05 762.37 438.78 747.58 444.51 732.9 450.26 719.01 456.03 706.56 461.81 696.12 467.64 688.06 473.5 682.65 479.41 680.39 491.41 688.2 503.7 703.12 516.34 722.22 529.38 740.2 542.88 753.24 556.85 759.58 571.2 756.95 585.96 745.75 600.99 727.52 616.09 704.24 631.11 678.7 645.74 653.05 659.73 629.74 672.71 610.24 684.24 595.25 694.27 585 702.26 578.88 707.88 578.18 703.4 559.43 697.39 544.86 706.25 539.44 710.85 533.74 716.08 527.8 721.86 521.73 728.19 515.48 734.89 509.09 741.81 502.63 748.92 496.07 755.98 489.45 762.82 482.8 769.4 476.12 775.47 469.43 780.85 462.74 785.55 456.05 789.31 449.4 792.03 442.74 793.77 436.12 794.34 429.53 793.69 422.95 792.01 416.48 789.19 410.11 785.34 403.74 780.69 397.47 775.24 391.28 769.14 385.07 762.66 378.93 755.85 372.84 748.87 366.71 741.98 360.61 735.22 354.54 728.76 348.4 722.79 342.26 717.34 336.09 712.49 329.84 708.42 323.56 705.05 317.21 702.41 304.24 699.7 290.97 699.65 277.35 701.72 263.41 705.89 249.21 710.66 234.91 715.18 220.71 719.43 206.8 721.98 193.5 722.34 181.01 720.86 169.64 716.71 159.67 709.99 150.98 701.3 143.83 690.47 138.2 677.95 133.37 664.28 129.46 649.66 126.09 634.55 122.23 619.26 118.04 604.05 113.2 589.16 107.02 574.68 100.05 560.74 92.49 547.38 84.28 534.59 76.32 522.31 69.12 510.46 62.69 499.07 57.75 487.92 54.45 476.93 52.76 468.82 51.25 452.65 51.13 444.53 51.06 436.4 50.77 419.88 50.31 411.47 49.72 405.84 49.03 400.14 48.26 394.36 47.27 388.58 46.25 382.72 45.26 376.79 44.2 370.86 43.28 364.93 42.56 359 41.94 353.07 41.63 347.15 41.65 341.25 41.9 335.36 42.55 329.49 43.59 323.65 44.88 317.83 46.56 312.05 48.57 306.32 50.76 300.62 53.21 294.99 55.86 289.43 58.52 283.9 61.28 278.46 64.05 273.13 69.07 262.58 73.65 252.51 77.61 242.99 80.42 233.71 82.86 225.04 85.32 217.05 87.72 209.26 91.1 202.12 95.82 195.61 101.75 189.14 109.43 183.15 118.73 177.54 129.13 171.65 140.57 165.89 152.57 160.11 164.5 153.69 176.19 147.01 187.35 139.98 197.46 132.12 206.76 123.87 215.32 115.28 222.76 106.08 229.75 96.82 236.53 87.74 242.69 78.71 249.08 70.37 255.9 63.02 262.6 56.48 269.98 51.35 278.05 47.81 284.27 45.97 297.65 44.6 304.77 44.96 312.09 45.83 327.44 48.68 335.41 50.42 343.49 52 360.08 54.61 368.56 55.45" stroke-dasharray="0 0" transform="rotate(0, 400, 400)" opacity="0.13"></path><path d="M412.41 101.59C423.48 101.74 435.1 101.36 447.23 100.54 459.39 98.87 472.06 97.15 485.12 95.62 498.14 93.98 511.41 93.07 524.68 93.08 537.59 93.7 550.12 95.57 561.87 98.75 572.65 102.82 582.05 108.18 589.61 114.69 595.58 121.91 599.25 130.01 600.42 138.79 600.05 147.81 597.53 157.17 593.32 166.69 589.13 175.99 584.85 185.22 581.64 194.29 581.28 202.89 584.07 211.26 590.95 219.41 602.54 227.04 618.57 234.52 638.44 241.92 660.74 248.9 683.84 255.92 705.5 263.05 723.47 269.92 735.73 277.03 740.62 284.42 738.11 291.68 728.16 299.3 712.28 307.32 694 315.28 675.68 323.68 660.82 332.51 653.07 341.31 653.69 350.57 663.29 360.27 680.99 369.96 703.75 380.11 727.64 390.71 748.59 401.31 762.08 412.14 765.9 423.18 760.04 434.25 745.05 445.56 723.66 457.09 699.39 468.68 675.72 480.51 655.93 492.57 642.51 504.69 636.49 517 637.69 529.44 645.57 541.86 657.56 554.31 671.12 566.62 684.77 578.71 695.37 590.45 701.35 601.62 702.49 612.22 697.75 621.94 687.68 630.55 673.27 638.21 655.49 644.48 635.8 649.2 615.17 652.83 594.99 654.88 576.19 655.4 559.06 655.19 544.24 653.86 531.76 651.74 521.5 649.85 513.19 647.98 506.34 646.62 500.98 646.74 496.27 648.19 491.73 651.3 487.77 656.66 483.38 663.91 478.29 672.9 473.25 683.64 467.27 695.33 460.29 707.31 453.19 719.18 445.09 729.83 436.01 738.45 426.86 744.82 416.81 747.97 405.9 747.55 395 744.11 383.57 737.46 371.72 728.25 359.93 717.6 347.79 705.9 335.39 694.02 323.13 683.02 310.71 673.18 298.28 664.98 286.16 659.06 274.21 655.13 262.63 653.07 251.61 653.13 241.22 654.44 231.67 656.54 222.91 659.54 215.18 662.34 208.59 664.49 200.37 666.42 188.97 661.01 184.46 653.17 180.85 646.17 176.83 637.71 172.12 628.03 166.14 617.51 159.28 606.14 151.61 594.18 143.03 581.83 134.19 569.22 125.53 556.52 117.2 543.77 109.92 531.11 104.1 518.64 99.6 506.28 96.83 494.15 95.75 482.29 95.56 470.56 96.33 459.07 97.6 447.81 98.29 436.64 98.55 425.65 98.09 414.84 96.24 404.07 93.69 393.44 90.76 382.96 87.41 372.48 84.82 362.39 83.46 352.7 83.22 343 84.8 333.7 88.17 324.83 92.69 315.96 98.43 307.53 104.9 299.55 111.17 291.57 117.2 284.04 122.61 276.94 126.73 269.79 129.98 263.03 132.48 256.63 133.99 250.05 135.4 243.72 137.12 237.56 139.07 231.06 142.15 224.58 146.57 218.05 152.16 211 159.34 203.76 167.97 196.29 177.72 188.24 188.56 179.93 200.15 171.4 212.15 162.43 224.35 153.39 236.5 144.43 248.36 135.43 259.84 126.82 270.89 118.84 281.31 111.35 291.29 104.82 300.92 99.46 309.96 94.98 318.83 91.83 327.67 90.05 336.11 89.11 344.73 89.37 353.66 90.68 362.38 92.25 371.57 94.38 381.32 96.81 390.99 98.68 401.32 100.34 412.4 101.59" stroke-dasharray="0 0" transform="rotate(14.428571428571427, 400, 400)" opacity="0.56"></path><path d="M426.27 147.73C436.07 147.95 445.4 147.75 454.19 147.17 462.91 145.83 471.01 144.36 478.36 142.92 488.67 140.55 504.08 138.79 508.88 140.26 512.27 143.65 515.18 156.61 516.24 165.91 518.06 172.9 520.76 180.56 524.88 188.74 531.09 197.15 539.42 205.9 550.14 214.85 563.23 223.77 578.53 232.76 595.62 241.74 613.65 250.52 631.92 259.24 649.3 267.88 664.61 276.25 676.8 284.55 684.78 292.79 688.22 300.79 686.53 308.79 679.83 316.81 669.59 324.65 656.36 332.59 641.82 340.66 628.61 348.61 617.9 356.76 611.48 365.12 611.03 373.42 616.57 382 627.88 390.85 644.04 399.69 662.94 408.84 682.15 418.31 699.31 427.78 711.52 437.35 717.28 447 716.45 456.65 708.68 466.36 695.14 476.07 677.66 485.75 658.02 495.38 638.41 504.89 620.75 514.29 606.54 523.48 596.71 532.34 591.91 540.98 591.74 549.18 595.43 556.81 602.58 564.07 611.36 570.62 620.41 576.36 637.07 588.51 622.5 596.3 604.97 596.14 591.1 596.11 576.31 596.01 561.18 596.1 545.82 597.08 530.85 598.69 516.57 601.18 502.77 605.06 489.86 610.08 477.88 616.27 466.49 623.87 455.9 632.47 445.98 641.84 436.48 651.92 427.43 662.1 418.68 671.9 410.13 681.16 401.69 689.15 393.28 695.37 384.93 699.85 376.51 701.94 368 701.41 359.5 698.76 351.12 693.74 342.9 686.72 334.72 678.49 326.78 669.13 319.15 659.19 311.64 649.42 304.55 639.95 297.96 631.18 291.55 623.65 285.71 617.29 280.49 612.16 273.2 607.42 261.36 604.83 256.29 605.64 250.7 607.23 237.28 608.05 228.56 606.24 221.52 604.19 213.8 601.07 205.49 596.9 196.53 592.11 187.36 586.33 178.3 579.67 169.46 572.5 161.38 564.61 154.4 556.13 148.52 547.32 144.18 538.08 141.49 528.55 140.02 518.84 139.96 508.96 141.07 499.02 142.49 489 144.26 478.99 145.95 469.05 146.66 459.1 146.6 449.25 145.59 439.55 143.16 429.85 139.93 420.3 136.25 410.94 132.13 401.57 128.62 392.59 126.18 383.98 124.76 375.36 125.07 367.09 127.18 359.15 130.66 351.16 135.68 343.46 141.88 336.04 148.55 328.51 155.58 321.19 162.54 314.04 168.75 306.72 174.28 299.5 178.97 292.34 182.39 284.92 185.01 277.48 187.01 269.98 188.17 262.17 189.22 254.26 190.48 246.23 191.77 237.89 193.81 229.45 196.8 220.94 200.49 212.24 205.37 203.57 211.4 195.05 218.33 186.56 226.33 178.39 235.21 170.69 244.8 163.35 255.01 156.69 265.63 150.88 276.63 145.69 287.81 141.49 299.02 138.37 310.33 135.97 321.55 134.64 332.59 134.36 343.62 134.59 354.46 135.64 365.07 137.38 375.65 139.14 386.05 141.23 396.24 143.45 406.44 145.13 416.45 146.59 426.26 147.73" stroke-dasharray="0 0" transform="rotate(28.857142857142854, 400, 400)" opacity="0.20"></path><path d="M376.67 193.87C383.91 194.15 390.72 194.12 397.1 193.82 406.45 192.36 423.4 188.6 431.33 186.94 436.8 185.91 442.28 185.38 447.95 185.41 454.09 185.73 460.68 186.75 467.87 188.52 475.82 190.72 484.62 193.7 494.38 197.42 505 201.6 516.61 206.49 529.12 212 542.2 217.89 555.81 224.31 569.61 231.17 583.06 238.29 595.9 245.74 607.56 253.45 617.58 261.29 625.49 269.29 630.78 277.4 633.48 285.54 633.15 293.73 629.77 301.93 624.13 310.11 616.15 318.29 606.49 326.44 596.61 334.54 586.83 342.62 578.17 350.68 572.1 358.7 568.9 366.7 569.2 374.69 573.56 382.66 581.6 390.63 592.85 398.59 606.67 406.55 621.73 414.51 636.65 422.45 650.25 430.39 660.73 438.11 667.19 445.6 669.56 453.07 667.23 460.28 660.54 467.2 650.33 474.06 637.2 480.58 622.27 486.73 606.68 492.78 591.41 498.4 577.4 503.55 565.43 508.57 555.96 513.09 549.22 517.08 547.56 526.73 564.52 536.52 570.47 538.75 574.12 541.34 571.54 547.93 565.35 552.6 559.65 556.67 552.74 561.35 544.88 566.66 536.33 572.84 527.18 579.63 517.68 586.96 507.86 594.89 497.95 603.12 488.12 611.42 478.2 619.78 468.49 627.78 459.09 635.13 449.71 641.85 440.67 647.43 432.03 651.61 423.42 654.57 415.19 655.83 407.38 655.27 399.56 653.31 392.3 649.66 385.56 644.56 378.79 638.51 372.48 631.47 366.61 623.72 360.64 615.77 355.03 607.64 349.72 599.58 344.21 592.01 338.9 584.88 333.69 578.33 328.15 572.66 322.59 567.7 316.89 563.43 310.73 560.11 304.32 557.39 297.58 555.16 290.3 553.67 282.65 552.45 274.62 551.37 266.16 550.7 257.44 549.93 248.55 548.92 239.58 548.03 230.74 546.72 222.24 544.93 214.18 543.05 206.84 540.59 200.45 537.54 192.85 532.37 185.53 518.81 185.69 510.57 186.74 504.76 188.48 498.53 190.63 491.92 192.45 485.22 194.05 478.21 195.16 470.95 195.15 463.64 194.27 456.11 192.49 448.42 189.49 440.72 185.82 432.87 181.74 424.9 177.27 416.94 173.25 409.04 170.04 401.23 167.57 393.41 166.49 385.66 166.94 377.97 168.64 370.26 171.88 362.58 176.49 354.94 182.02 347.24 188.45 339.54 195.47 331.85 202.57 324.06 209.67 316.25 216.52 308.42 222.7 300.5 228.27 292.55 233.18 284.6 237.11 276.59 240.38 268.6 243.1 260.68 245.01 252.78 246.64 245.02 248.17 237.47 249.31 230.07 250.68 222.98 252.39 216.31 254.16 209.94 256.5 204.1 259.47 198.88 264.74 192.07 279.18 182.99 288.13 180.85 294.59 180.12 301.46 180.13 308.62 180.83 315.99 181.73 323.55 183.13 331.18 184.93 338.93 186.59 346.65 188.41 354.27 190.28 361.93 191.66 369.41 192.88 376.66 193.87" stroke-dasharray="0 0" transform="rotate(43.285714285714285, 400, 400)" opacity="0.98"></path><path d="M383.41 240.01C389.31 240.32 395.49 240.45 401.94 240.41 408.42 239.92 415.21 239.32 422.31 238.67 436.72 236.43 452.61 234.65 469.82 233.78 487.31 232.99 505.76 233.93 524.2 236.74 541.33 240.49 556.41 246.3 567.59 253.9 574.5 262.47 575.52 272.54 570.21 283.7 561.37 295.44 549.13 307.88 536.53 320.67 528.6 333.69 526.71 346.82 532.96 359.78 539.52 366.29 547.9 372.74 557.75 379.09 568.73 385.45 580.1 391.71 591.16 397.83 601.44 403.95 609.88 409.79 616.03 415.34 619.94 420.87 621.04 426.11 619.34 431.04 608.92 440.87 590.28 449.49 567.51 456.91 544.39 464.44 523.97 471.01 508.29 476.86 498.33 483.32 493.33 489.64 491.73 496.22 493.42 504.19 495.37 513.07 496.05 523.04 496.59 534.68 494.42 547.3 489.42 560.37 483.53 573.83 475.16 586.33 464.83 596.69 459.53 601.12 453.86 604.67 447.85 607.24 441.81 609.01 435.49 609.66 428.92 609.13 422.35 607.74 415.68 605.24 408.95 601.75 402.21 597.61 395.37 592.69 388.46 587.14 374.53 575.25 360.06 562.32 345.06 549.44 329.85 537.84 314.14 527.33 298.36 518.14 283.08 510.9 268.62 504.66 255.95 499.03 245.37 494.61 237.77 489.99 233.79 484.78 232.28 479.9 233.8 473.91 237.49 466.66 240.63 459.36 243.18 450.7 243.87 440.72 242.77 435.71 240.96 430.38 238.49 424.75 235.13 419.12 231.32 413.19 227.24 406.98 222.84 400.77 218.75 394.44 215.2 388.01 212.07 381.58 209.89 375.07 208.79 368.48 209.33 355.34 214.7 341.97 224.12 328.59 235.89 315.33 249.36 302.21 263.09 289.57 275.62 277.35 286.78 265.96 296.36 255.82 303.64 246.61 309.84 239.09 315.57 233.62 320.03 229.34 325.05 227.19 331.1 227.17 336.83 227.79 344.02 229.89 352.73 233.08 359.43 235.11 374.76 238.73 383.4 240.01" stroke-dasharray="0 0" transform="rotate(57.71428571428571, 400, 400)" opacity="0.24"></path><path d="M430.21 286.15C440.1 286.45 450.15 286.52 460.11 286.42 469.93 285.36 479.34 284.49 487.86 284 504.21 284.51 501.89 296.25 493.13 304.38 488.13 310.45 484.13 317.38 482.44 324.97 484.81 332.75 490.98 341.03 501.01 349.61 514.67 358.25 530.24 367.09 545.67 375.97 559.47 384.86 568.59 393.36 572.06 401.45 570.56 409.59 563.45 417.43 551.95 425.01 537.64 432.81 521.54 440.57 505.19 448.38 489.5 456.64 475.27 465.17 462.96 474 452.62 483.43 444.05 493.2 436.85 503.15 431.04 513.45 425.71 523.6 420.34 533.19 415.47 542.35 409.92 550.27 403.43 556.4 396.98 561.13 389.38 563.44 380.6 562.99 371.82 560.72 362.34 555.92 352.49 549.09 342.8 541.28 333 532.21 323.48 522.46 314.49 512.78 306.22 503.01 299.14 493.49 293.02 484.65 288.49 476.19 285.86 468.17 284.24 460.87 284.38 453.8 286.11 446.85 287.89 440.37 290.28 433.73 292.64 426.81 293.3 420.08 292.76 412.87 290.62 405.12 285.95 397.4 279.78 389.05 272.73 380.11 264.84 371.17 258.24 362.07 253.76 352.99 251.07 343.98 251.52 335.08 255.04 326.52 260.81 318.15 269.09 310.29 279.15 303.16 290.21 296.41 301.99 290.58 313.88 285.87 325.5 281.66 336.7 278.67 347.33 276.99 357.26 275.7 366.74 275.6 375.9 276.61 384.57 277.58 393.28 279.28 402.23 281.51 411.02 283.04 420.32 284.64 430.21 286.15" stroke-dasharray="0 0" transform="rotate(72.14285714285714, 400, 400)" opacity="0.42"></path><path d="M404.03 332.29C419.2 333.23 434.12 334.35 433.67 338.3 435.53 341.39 439.54 346.95 447.93 354.81 454.54 358.76 462.38 363.27 471.19 368.3 480.89 373.33 490.79 378.86 500.19 384.87 508.92 390.87 515.63 397.08 520 403.41 522.59 409.78 522.57 416.31 520.14 422.94 510.23 436.4 493.81 450.48 474.96 464.42 455.24 478.42 436.48 491.64 420.16 502.51 412.26 507.37 404.88 511.34 398.04 514.19 388.12 516.86 370.74 514.32 363.82 509.35 359.46 505.13 355.88 500 353.11 494.2 347.64 481.99 345.39 468.29 345.91 454.45 345.14 441.13 344.88 427.91 343.49 415.22 341.06 409.01 337.96 402.84 334.17 396.75 329.26 390.68 323.85 384.65 318.22 378.7 312.16 372.75 306.78 367.16 302.38 361.98 297.3 354.45 300.25 336.5 315.54 330.05 329.58 326.84 345.38 326.05 360.87 327.52 368.79 327.95 376.46 328.74 383.71 329.84 391 330.51 397.82 331.34 404.03 332.29" stroke-dasharray="0 0" transform="rotate(86.57142857142857, 400, 400)" opacity="0.82"></path></g></svg>